inDegrees=yes
name=ik_XSDot_20240320_161646_orientations
DataType=double
version=3
OpenSimVersion=4.5-2024-01-10-34fd6af
endheader
time	pelvis_tilt	pelvis_list	pelvis_rotation	pelvis_tx	pelvis_ty	pelvis_tz	hip_flexion_r	hip_adduction_r	hip_rotation_r	knee_angle_r	knee_angle_r_beta	ankle_angle_r	subtalar_angle_r	mtp_angle_r	hip_flexion_l	hip_adduction_l	hip_rotation_l	knee_angle_l	knee_angle_l_beta	ankle_angle_l	subtalar_angle_l	mtp_angle_l	lumbar_extension	lumbar_bending	lumbar_rotation	arm_flex_r	arm_add_r	arm_rot_r	elbow_flex_r	pro_sup_r	wrist_flex_r	wrist_dev_r	arm_flex_l	arm_add_l	arm_rot_l	elbow_flex_l	pro_sup_l	wrist_flex_l	wrist_dev_l
4.289999999999953	-3.551025120187725	-174.3683126431132	169.7958628614561	0	0.9399999999999999	0	27.33789335597771	9.792250002043307	-7.231964084469399	0.08834891109111266	0.001541979389091652	-4.956191260932298	0	0	-16.92380718829156	-2.341626385075933	12.2402258412454	0.02249398959934186	0.0003925941804178755	-4.956191260932298	0	0	0	0	0	0	-7.64152055890995	0	60.19287957580849	43.51411628968096	0	0	0	-7.64152055890995	0	60.19287957580849	43.51411628968096	0	0
4.299999999999953	-3.842083744520121	-175.2487803258412	169.799415286555	0	0.9399999999999999	0	28.13752522067902	9.180923371441489	-7.069426168295726	0.08515629310336216	0.00148625769344701	-4.956584916697324	0	0	-17.46205638170542	-1.715451951292449	12.20702985560786	0.03483403283319773	0.0006079685646871091	-4.956584916697324	0	0	0	0	0	0	-7.649253359896596	0	60.2241303736213	43.52232924544461	0	0	0	-7.649253359896596	0	60.2241303736213	43.52232924544461	0	0
4.309999999999953	-4.664371036154279	-176.9053750243506	169.8033015295804	0	0.9399999999999999	0	29.56595569390689	8.005654253527032	-6.594758174559279	0.08347609352924522	0.001456932678788062	-4.956856051573714	0	0	-17.25749504409113	-0.4410147957699981	12.47158813773227	0.07959143688123667	0.001389132629970827	-4.956856051573714	0	0	0	0	0	0	-7.654643425420948	0	60.24585561403386	43.52800920978272	0	0	0	-7.654643425420948	0	60.24585561403386	43.52800920978272	0	0
4.319999999999952	-4.698431160939863	-177.6958527065531	169.8559836888126	0	0.9399999999999999	0	30.16028387223742	7.564149591142831	-6.4792390668394	0.08437859873566846	0.001472684366156539	-4.957035540175213	0	0	-17.51425009043861	0.2003854853175123	12.3128638289064	1.223578094695298	0.02135546640771191	-4.957035540175213	0	0	0	0	0	0	-7.658253208840631	0	60.26036546678302	43.53178372716652	0	0	0	-7.658253208840631	0	60.26036546678302	43.53178372716652	0	0
4.329999999999952	-4.717521962858888	-178.4407574675313	169.8925263486814	0	0.9399999999999999	0	30.747800128371	7.365332076844128	-6.368417695078272	0.0872426285980251	0.001522671117130103	-4.960892351089306	0	0	-16.12073396681116	1.164141093371491	11.60303699366407	5.579100909043616	0.09737368016381978	-4.960892351089306	0	0	0	0	0	0	-7.782964786325976	0	60.70414773799628	43.62541681554885	0	0	0	-7.782964786325976	0	60.70414773799628	43.62541681554885	0	0
4.339999999999952	-4.797548352842406	-179.1630739015602	169.9456195622707	0	0.9399999999999999	0	31.4166805807469	7.391569581473473	-6.308517528964455	0.09088715088930331	0.001586280030775235	-4.962991962272132	0	0	-14.41131914031975	1.990796689842814	10.94819302545909	10.14900114703277	0.177133485804403	-4.962991962272132	0	0	0	0	0	0	-7.865510911140939	0	60.98432495416285	43.67966147462574	0	0	0	-7.865510911140939	0	60.98432495416285	43.67966147462574	0	0
4.349999999999952	-4.798757199623087	-179.8660512021977	170.0570319538692	0	0.9399999999999999	0	32.01256365528351	7.532983987968525	-6.312158409762938	0.09560085968305566	0.001668549769206424	-4.964648431895362	0	0	-12.77695572905204	2.711584799465137	10.44999539962454	14.54829874381216	0.2539157136432772	-4.964648431895362	0	0	0	0	0	0	-7.931888615120147	0	61.20780550960059	43.72255479931577	0	0	0	-7.931888615120147	0	61.20780550960059	43.72255479931577	0	0
4.359999999999951	-4.605854620908851	-180.535361049189	170.1765856187032	0	0.9399999999999999	0	32.40949326630668	7.774368107672098	-6.304567096087734	0.09792978182774176	0.001709197128653804	-4.965892514922797	0	0	-11.48704557935302	3.285696951382296	10.02262471227189	18.61349609876854	0.3248667922306306	-4.965892514922797	0	0	0	0	0	0	-7.982308585035066	0	61.37647126085528	43.75475891949089	0	0	0	-7.982308585035066	0	61.37647126085528	43.75475891949089	0	0
4.369999999999951	-4.262405547296642	-181.1849152199622	170.3553722244424	0	0.9399999999999999	0	32.64484241642973	7.993496652507524	-6.346195776544304	0.09664456643228046	0.001686765888405683	-4.966961839497039	0	0	-10.35484758809488	3.749441901650907	9.672504552492249	22.3735948733713	0.390492896047653	-4.966961839497039	0	0	0	0	0	0	-8.025565374757822	0	61.52133669288019	43.78244640538774	0	0	0	-8.025565374757822	0	61.52133669288019	43.78244640538774	0	0
4.379999999999951	-3.896901420988063	-181.8366359839872	170.5632345530002	0	0.9399999999999999	0	32.84163500810875	8.157085929785334	-6.408146816524936	0.09010663250872497	0.001572657415161809	-4.96723672339408	0	0	-9.10209096493325	4.193185688602846	9.380584477056267	25.87463257645571	0.4515975312029355	-4.96723672339408	0	0	0	0	0	0	-8.032262159942944	0	61.54723804065662	43.78864776442116	0	0	0	-8.032262159942944	0	61.54723804065662	43.78864776442116	0	0
4.389999999999951	-3.604867866875905	-182.4821828940221	170.7662781595797	0	0.9399999999999999	0	33.1225895446503	8.303245406156536	-6.489640592077189	0.08085701509971328	0.001411221136824768	-4.967513208767421	0	0	-7.716813114381232	4.497021477862265	9.140118434516381	28.96441460100855	0.5055244007003188	-4.967513208767421	0	0	0	0	0	0	-8.039034048762129	0	61.57341539828376	43.7949016952479	0	0	0	-8.039034048762129	0	61.57341539828376	43.7949016952479	0	0
4.399999999999951	-3.50003559282403	-183.1340325186115	170.8527360490599	0	0.9399999999999999	0	33.63366021035112	8.489868385099276	-6.490476635900343	0.07160251166579687	0.001249699581265805	-4.967604951406968	0	0	-6.067850803822368	4.665912621186754	8.816606730746688	31.49403259088283	0.5496745634413056	-4.967604951406968	0	0	0	0	0	0	-8.041249708376764	0	61.58200867182472	43.7969679780949	0	0	0	-8.041249708376764	0	61.58200867182472	43.7969679780949	0	0
